<svg width="15" height="15" viewBox="0 0 15 15" fill="none" xmlns="http://www.w3.org/2000/svg">
<path d="M13.6875 0C14.412 0 15 0.58725 15 1.3125V13.6875C15 14.0356 14.8617 14.3694 14.6156 14.6156C14.3694 14.8617 14.0356 15 13.6875 15H1.3125C0.964403 15 0.630564 14.8617 0.384422 14.6156C0.138281 14.3694 0 14.0356 0 13.6875V1.3125C0 0.58725 0.58725 0 1.3125 0H13.6875ZM11.46 4.665C11.3545 4.55966 11.2116 4.50049 11.0625 4.50049C10.9134 4.50049 10.7705 4.55966 10.665 4.665L6.1875 9.14175L4.335 7.29C4.2828 7.2378 4.22083 7.19639 4.15263 7.16814C4.08442 7.13989 4.01132 7.12535 3.9375 7.12535C3.86368 7.12535 3.79058 7.13989 3.72237 7.16814C3.65417 7.19639 3.5922 7.2378 3.54 7.29C3.4878 7.3422 3.44639 7.40417 3.41814 7.47237C3.38989 7.54058 3.37535 7.61368 3.37535 7.6875C3.37535 7.76132 3.38989 7.83442 3.41814 7.90263C3.44639 7.97083 3.4878 8.0328 3.54 8.085L5.79 10.335C5.89547 10.4403 6.03844 10.4995 6.1875 10.4995C6.33656 10.4995 6.47953 10.4403 6.585 10.335L11.46 5.46C11.5653 5.35453 11.6245 5.21156 11.6245 5.0625C11.6245 4.91344 11.5653 4.77047 11.46 4.665Z" fill="white"/>
</svg>
