<svg width="24" height="24" viewBox="0 0 24 24" fill="none" xmlns="http://www.w3.org/2000/svg">
<g clip-path="url(#clip0_70_43)">
<path d="M23.2482 8.18824C21.2819 9.17647 20.0675 10.8706 20.0675 12.7529C20.0675 14.8706 21.6289 16.8 24 17.6C23.5373 18.8235 22.8434 19.9529 21.9759 20.9882C20.7036 22.4471 19.3735 23.9529 17.4072 23.9529C15.441 23.9529 14.8627 23.0118 12.5494 23.0118C10.294 23.0118 9.48434 24 7.63373 24C5.78313 24 4.51084 22.6353 3.06506 20.9412C1.15663 18.5882 0.0578313 15.8588 0 12.9882C0 8.32941 3.7012 5.83529 7.40241 5.83529C9.36867 5.83529 10.988 6.87059 12.2024 6.87059C13.359 6.87059 15.2096 5.78824 17.4072 5.78824C19.7205 5.74118 21.9181 6.63529 23.2482 8.18824ZM16.3663 3.81176C17.3494 2.87059 17.8699 1.69412 17.9277 0.470588C17.9277 0.329412 17.9277 0.141176 17.8699 0C16.1928 0.141176 14.6313 0.8 13.5325 1.83529C12.5494 2.72941 11.9711 3.85882 11.9133 5.08235C11.9133 5.22353 11.9133 5.36471 11.9711 5.50588C12.0867 5.50588 12.2602 5.55294 12.3759 5.55294C13.9373 5.45882 15.3831 4.8 16.3663 3.81176Z" fill="white"/>
</g>
<defs>
<clipPath id="clip0_70_43">
<rect width="24" height="24" fill="white"/>
</clipPath>
</defs>
</svg>
